#!OML:ASF H:\ManfredObstacles\Project 1\Capture day 2\Session 1\male.ASF
:FULLY-SPECIFIED
:DEGREES
276
root 2.52311 15.4987 -13.9422 -171.382 -0.139487 -184.036
lowerback 5.8884 -1.72521 -6.72968
upperback 3.3548 -2.90573 -0.93383
thorax 0.449195 -1.65601 2.95231
lowerneck -32.5831 -2.11563 3.17064
upperneck 45.1275 -0.890499 0.142143
head 27.8075 1.63214 -0.153782
rclavicle 2.04748e-014 -5.1684e-015
rhumerus -49.3378 1.3812 -84.1614
rradius 61.4553
rwrist 14.1187
rhand -11.5096 -15.0733
rfingers 7.12502
rthumb 14.5296 -44.5445
lclavicle 2.04748e-014 -5.1684e-015
lhumerus -19.1879 -37.9432 90.9639
lradius 80.5162
lwrist -22.7356
lhand -16.1868 11.8001
lfingers 7.12502
lthumb 10.0199 41.5416
rfemur -51.8395 -4.85528 19.3065
rtibia 90.0736
rfoot 7.96994 -14.3714
rtoes -8.5325
lfemur -10.4846 1.86572 -27.1069
ltibia 48.4369
lfoot 8.28596 12.8517
ltoes -17.4198
277
root 2.54361 15.6269 -14.1991 -171.042 -0.364929 -184.138
lowerback 5.59354 -1.98771 -6.97131
upperback 3.30676 -3.23257 -0.829531
thorax 0.617839 -1.82313 3.19441
lowerneck -32.5462 -1.90159 3.37096
upperneck 45.2156 -0.450845 -0.129585
head 27.9235 1.78651 -0.219854
rclavicle 9.0447e-015 2.3059e-014
rhumerus -50.6648 1.4923 -83.5516
rradius 61.2083
rwrist 13.8621
rhand -11.4545 -14.5814
rfingers 7.12502
rthumb 14.5826 -44.0488
lclavicle 9.0447e-015 2.3059e-014
lhumerus -19.0282 -38.1701 90.8561
lradius 81.407
lwrist -22.9806
lhand -16.0641 11.4195
lfingers 7.12502
lthumb 10.1383 41.1553
rfemur -52.3609 -5.15976 19.2823
rtibia 88.345
rfoot 7.44 -14.2369
rtoes -10.4312
lfemur -8.95273 1.63476 -27.0342
ltibia 45.8504
lfoot 9.94952 10.9806
ltoes -17.3931
278
root 2.56573 15.7551 -14.4608 -170.686 -0.560828 -184.222
lowerback 5.26651 -2.24713 -7.19363
upperback 3.23201 -3.54881 -0.719035
thorax 0.778926 -1.98292 3.42757
lowerneck -32.4107 -1.6963 3.56834
upperneck 45.3175 0.00336714 -0.396006
head 28.0157 1.95102 -0.275291
rclavicle -4.56211e-014 -1.19271e-014
rhumerus -52.1032 1.63681 -82.9219
rradius 61.0471
rwrist 13.358
rhand -11.266 -13.9934
rfingers 7.12502
rthumb 14.7643 -43.4475
lclavicle -4.56211e-014 -1.19271e-014
lhumerus -19.0753 -38.3467 90.8037
lradius 82.2653
lwrist -23.1576
lhand -15.9049 11.0407
lfingers 7.12502
lthumb 10.2919 40.7689
rfemur -52.7939 -5.34514 19.2756
rtibia 86.3789
rfoot 6.97776 -14.1953
rtoes -12.318
lfemur -7.4506 1.41152 -26.9433
ltibia 43.2277
lfoot 11.804 9.12016
ltoes -17.2775
279
root 2.58928 15.8817 -14.7258 -170.312 -0.722613 -184.279
lowerback 4.91609 -2.50264 -7.38493
upperback 3.13348 -3.85398 -0.598061
thorax 0.929571 -2.13503 3.65011
lowerneck -32.2108 -1.49708 3.77979
upperneck 45.441 0.477984 -0.680638
head 28.1139 2.12883 -0.336603
rclavicle -2.67365e-014 -3.18055e-015
rhumerus -53.6295 1.82301 -82.2802
rradius 60.9605
rwrist 12.6854
rhand -10.9461 -13.452
rfingers 7.12502
rthumb 15.0724 -42.8833
lclavicle -2.67365e-014 -3.18055e-015
lhumerus -19.2909 -38.4849 90.7951
lradius 83.0821
lwrist -23.2646
lhand -15.6907 10.6828
lfingers 7.12502
lthumb 10.4986 40.4006
rfemur -53.132 -5.40353 19.2929
rtibia 84.1841
rfoot 6.66043 -14.2527
rtoes -14.0017
lfemur -5.98146 1.20176 -26.8198
ltibia 40.5867
lfoot 13.8542 7.31208
ltoes -17.0495
280
root 2.61317 16.005 -14.9938 -169.918 -0.833721 -184.314
lowerback 4.55455 -2.74985 -7.53291
upperback 2.99641 -4.14366 -0.48317
thorax 1.04423 -2.27537 3.83956
lowerneck -31.9455 -1.29013 4.03623
upperneck 45.5605 0.973706 -1.00554
head 28.1838 2.32069 -0.426322
rclavicle 2.68359e-014 3.57812e-015
rhumerus -55.2585 2.03414 -81.6456
rradius 60.9541
rwrist 11.9776
rhand -10.5191 -13.0662
rfingers 7.12502
rthumb 15.4837 -42.4661
lclavicle 2.68359e-014 3.57812e-015
lhumerus -19.7044 -38.6108 90.8314
lradius 83.8707
lwrist -23.3106
lhand -15.4348 10.3846
lfingers 7.12502
lthumb 10.7454 40.0898
rfemur -53.3813 -5.33403 19.3142
rtibia 81.7784
rfoot 6.51178 -14.4078
rtoes -15.383
lfemur -4.54848 1.00818 -26.6789
ltibia 37.9441
lfoot 16.1059 5.61816
ltoes -16.6569
281
root 2.63612 16.1243 -15.2646 -169.504 -0.916031 -184.336
lowerback 4.17613 -2.99463 -7.62446
upperback 2.83472 -4.42578 -0.373731
thorax 1.13953 -2.40904 3.98888
lowerneck -31.6323 -1.09943 4.29108
upperneck 45.7033 1.47841 -1.33762
head 28.2736 2.52133 -0.515839
rclavicle 2.62396e-014 -3.97569e-016
rhumerus -56.9457 2.2838 -81.0181
rradius 61.0127
rwrist 11.2613
rhand -10.0261 -12.9063
rfingers 7.12502
rthumb 15.9585 -42.2688
lclavicle 2.62396e-014 -3.97569e-016
lhumerus -20.278 -38.7368 90.9071
lradius 84.6298
lwrist -23.2997
lhand -15.137 10.1554
lfingers 7.12502
lthumb 11.0327 39.8455
rfemur -53.5241 -5.17338 19.3151
rtibia 79.1733
rfoot 6.52673 -14.6266
rtoes -16.4556
lfemur -3.14941 0.797291 -26.5372
ltibia 35.3226
lfoot 18.5639 4.0799
ltoes -15.9665
282
root 2.65805 16.2391 -15.5379 -169.066 -0.974639 -184.332
lowerback 3.77488 -3.24258 -7.64923
upperback 2.65916 -4.7079 -0.26661
thorax 1.2293 -2.5408 4.09491
lowerneck -31.2985 -0.901818 4.54289
upperneck 45.8205 1.99468 -1.67249
head 28.3286 2.72305 -0.605544
rclavicle -6.63941e-014 3.97569e-016
rhumerus -58.641 2.57098 -80.4042
rradius 61.1147
rwrist 10.6116
rhand -9.49548 -12.9334
rfingers 7.12502
rthumb 16.4694 -42.2544
lclavicle -6.63941e-014 3.97569e-016
lhumerus -20.9754 -38.8532 90.9907
lradius 85.3587
lwrist -23.278
lhand -14.8259 10.0138
lfingers 7.12502
lthumb 11.3326 39.6876
rfemur -53.569 -4.92686 19.3057
rtibia 76.38
rfoot 6.69569 -14.8752
rtoes -17.1025
lfemur -1.79684 0.548734 -26.3838
ltibia 32.7509
lfoot 21.2083 2.72008
ltoes -14.9245
283
root 2.67845 16.3486 -15.814 -168.606 -1.02062 -184.298
lowerback 3.34001 -3.50212 -7.60666
upperback 2.48411 -5.00129 -0.154207
thorax 1.33563 -2.67792 4.16359
lowerneck -31.0053 -0.701724 4.79781
upperneck 45.9461 2.52666 -2.01764
head 28.4347 2.93123 -0.697806
rclavicle 9.22361e-014 1.98785e-014
rhumerus -60.3134 2.92037 -79.8103
rradius 61.2592
rwrist 9.99747
rhand -8.98727 -13.1045
rfingers 7.12502
rthumb 16.9587 -42.3842
lclavicle 9.22361e-014 1.98785e-014
lhumerus -21.761 -38.9427 91.0684
lradius 86.0465
lwrist -23.2628
lhand -14.5297 9.95569
lfingers 7.12502
lthumb 11.6183 39.6136
rfemur -53.5024 -4.60392 19.2734
rtibia 73.407
rfoot 6.95823 -15.1085
rtoes -17.4269
lfemur -0.491634 0.232108 -26.2251
ltibia 30.263
lfoot 23.976 1.57708
ltoes -13.4739
284
root 2.69762 16.452 -16.092 -168.123 -1.07443 -184.227
lowerback 2.86537 -3.77321 -7.48877
upperback 2.31831 -5.30633 -0.0353694
thorax 1.46957 -2.82131 4.19028
lowerneck -30.7443 -0.500297 5.02704
upperneck 46.0552 3.06419 -2.35173
head 28.5487 3.13501 -0.778127
rclavicle 1.63003e-014 -9.14409e-015
rhumerus -61.9323 3.3011 -79.221
rradius 61.4306
rwrist 9.45988
rhand -8.50911 -13.3218
rfingers 7.12502
rthumb 17.4189 -42.5614
lclavicle 1.63003e-014 -9.14409e-015
lhumerus -22.5962 -39.0173 91.1195
lradius 86.6927
lwrist -23.236
lhand -14.238 9.9476
lfingers 7.12502
lthumb 11.8996 39.5894
rfemur -53.3358 -4.22345 19.2283
rtibia 70.2757
rfoot 7.28924 -15.2619
rtoes -17.4873
lfemur 0.742803 -0.176695 -26.0529
ltibia 27.9015
lfoot 26.8053 0.636644
ltoes -11.5368
285
root 2.71523 16.5483 -16.3716 -167.627 -1.1512 -184.132
lowerback 2.36366 -4.06866 -7.31573
upperback 2.17052 -5.64324 0.0979311
thorax 1.63749 -2.98216 4.19396
lowerneck -30.5387 -0.283501 5.24709
upperneck 46.1529 3.62965 -2.69034
head 28.6967 3.34284 -0.852176
rclavicle 1.35174e-014 3.18055e-015
rhumerus -63.4746 3.74877 -78.6331
rradius 61.6382
rwrist 8.95956
rhand -8.09566 -13.4955
rfingers 7.12502
rthumb 17.8168 -42.6993
lclavicle 1.35174e-014 3.18055e-015
lhumerus -23.47 -39.0197 91.1449
lradius 87.2972
lwrist -23.241
lhand -13.9508 9.9457
lfingers 7.12502
lthumb 12.1766 39.5713
rfemur -53.0509 -3.81537 19.1557
rtibia 67.0061
rfoot 7.65511 -15.2581
rtoes -17.4783
lfemur 1.89447 -0.696314 -25.8857
ltibia 25.7139
lfoot 29.6548 -0.0879289
ltoes -9.05725
286
root 2.73155 16.6361 -16.6527 -167.129 -1.26163 -184.031
lowerback 1.8301 -4.3787 -7.09279
upperback 2.03612 -6.00005 0.230685
thorax 1.83385 -3.15393 4.16115
lowerneck -30.3413 -0.0782162 5.41824
upperneck 46.2495 4.19528 -2.9961
head 28.8574 3.54469 -0.895369
rclavicle 4.92986e-014 -1.59028e-015
rhumerus -64.9677 4.1966 -78.0295
rradius 61.8794
rwrist 8.5167
rhand -7.75384 -13.5713
rfingers 7.12502
rthumb 18.1457 -42.7449
lclavicle 4.92986e-014 -1.59028e-015
lhumerus -24.4092 -38.9872 91.1664
lradius 87.8689
lwrist -23.2293
lhand -13.6652 9.92425
lfingers 7.12502
lthumb 12.4519 39.5333
rfemur -52.6466 -3.40384 19.0448
rtibia 63.6343
rfoot 7.99463 -15.0662
rtoes -17.5037
lfemur 2.9459 -1.33086 -25.7398
ltibia 23.7483
lfoot 32.4299 -0.581728
ltoes -6.23112
287
root 2.74828 16.715 -16.9352 -166.644 -1.38819 -183.916
lowerback 1.27207 -4.69371 -6.8465
upperback 1.92076 -6.36592 0.372315
thorax 2.06211 -3.33187 4.11599
lowerneck -30.1442 0.132633 5.58644
upperneck 46.3323 4.77694 -3.30808
head 29.0149 3.74952 -0.93785
rclavicle 2.69353e-014 2.14687e-014
rhumerus -66.3843 4.65712 -77.4029
rradius 62.1252
rwrist 8.12831
rhand -7.46394 -13.5132
rfingers 7.12502
rthumb 18.4246 -42.6607
lclavicle 2.69353e-014 2.14687e-014
lhumerus -25.4082 -38.8886 91.2002
lradius 88.4088
lwrist -23.2062
lhand -13.3542 9.8411
lfingers 7.12502
lthumb 12.7518 39.4317
rfemur -52.1172 -2.95622 18.9094
rtibia 60.1893
rfoot 8.30754 -14.6676
rtoes -17.7632
lfemur 3.88174 -2.04416 -25.6026
ltibia 22.0465
lfoot 35.0554 -0.845551
ltoes -3.38504
